<svg width="300" height="436" viewBox="0 0 300 436" xmlns="http://www.w3.org/2000/svg" xmlns:xlink="http://www.w3.org/1999/xlink"><title>Artboard 1</title><defs><linearGradient x1="53.204%" y1="92.557%" x2="53.204%" y2="-188.091%" id="a"><stop stop-color="#2F4B2E" stop-opacity="0" offset="0%"/><stop stop-opacity=".934" offset="100%"/><stop offset="100%"/></linearGradient><filter x="-50%" y="-50%" width="200%" height="200%" filterUnits="objectBoundingBox" id="b"><feGaussianBlur stdDeviation="2" in="SourceGraphic" result="blur"/></filter><filter x="-50%" y="-50%" width="200%" height="200%" filterUnits="objectBoundingBox" id="c"><feGaussianBlur stdDeviation="4" in="SourceGraphic" result="blur"/></filter><filter x="-50%" y="-50%" width="200%" height="200%" filterUnits="objectBoundingBox" id="d"><feOffset dy="2" in="SourceAlpha" result="shadowOffsetOuter1"/><feGaussianBlur stdDeviation=".5" in="shadowOffsetOuter1" result="shadowBlurOuter1"/><feColorMatrix values="0 0 0 0 0 0 0 0 0 0 0 0 0 0 0 0 0 0 0.0974269701 0" in="shadowBlurOuter1" result="shadowMatrixOuter1"/><feMerge><feMergeNode in="shadowMatrixOuter1"/><feMergeNode in="SourceGraphic"/></feMerge></filter><path id="e" d="M1.543 387.926c0-6.17 5.005-11.172 11.18-11.172H285.88c6.175 0 11.18 5 11.18 11.172 0 6.17-5.005 11.172-11.18 11.172H12.723c-6.174 0-11.18-5-11.18-11.172z"/><radialGradient cx="49.71%" cy="3.5%" fx="49.71%" fy="3.5%" r="111.712%" id="g"><stop stop-color="#FFF" stop-opacity="0" offset="0%"/><stop offset="100%"/></radialGradient><radialGradient cx="49.71%" cy="3.5%" fx="49.71%" fy="3.5%" r="117.135%" id="h"><stop stop-color="#FFF" stop-opacity="0" offset="0%"/><stop offset="100%"/></radialGradient><rect id="f" x="1.527" y="1.641" width="295.517" height="395.778" rx="7.84"/></defs><g fill="none" fill-rule="evenodd"><path d="M8.387 380.61h282.845l-.385 45.39H8.002l.385-45.39z" fill="url(#a)" filter="url(#b)" transform="translate(.777 .013)"/><path opacity=".62" fill-opacity=".763" fill="#2C3929" filter="url(#c)" d="M8.002 31.83h283.23v372.38H8z" transform="translate(.777 .013)"/><g filter="url(#d)" transform="translate(.777 .013)"><use fill="#CFCFCF" xlink:href="#e"/><use fill-opacity=".02" xlink:href="#e"/><use fill="#FFF" xlink:href="#e"/></g><g transform="translate(.777 .013)"><use fill="#28B557" xlink:href="#f"/><use fill-opacity=".2" fill="url(#g)" xlink:href="#f"/><use fill-opacity=".2" fill="url(#h)" xlink:href="#f"/><use fill-opacity=".02" xlink:href="#f"/></g><path d="M5.304 9.493v380.1c0 2.67 2.17 4.84 4.847 4.84h279.824a4.842 4.842 0 0 0 4.847-4.84V9.493c0-2.67-2.17-4.84-4.846-4.84H10.15a4.843 4.843 0 0 0-4.846 4.84zm-3 0c0-4.33 3.512-7.84 7.847-7.84h279.824c4.334 0 7.847 3.513 7.847 7.84v380.1c0 4.33-3.51 7.84-7.846 7.84H10.15c-4.333 0-7.846-3.513-7.846-7.84V9.493z" fill="#FFF"/><path d="M2.304 9.493v380.1c0 4.327 3.513 7.84 7.847 7.84h279.824a7.842 7.842 0 0 0 7.847-7.84V9.493c0-4.327-3.512-7.84-7.846-7.84H10.15a7.842 7.842 0 0 0-7.846 7.84zm-1 0c0-4.882 3.96-8.84 8.847-8.84h279.824c4.885 0 8.847 3.96 8.847 8.84v380.1c0 4.882-3.96 8.84-8.846 8.84H10.15c-4.884 0-8.846-3.96-8.846-8.84V9.493z" fill="#E6E6E6"/><g transform="translate(17.76 16.654)" opacity=".3"><rect stroke="#FFF" stroke-width="1.916" x=".171" y=".05" width="263.96" height="365.477" rx="3"/><path d="M11.585 364.09c0-5.556-4.47-10.06-9.987-10.06m251.118 10.06c0-5.556 4.472-10.06 9.988-10.06M11.585 1.487c0 5.555-4.47 10.06-9.987 10.06m251.118-10.06c0 5.555 4.472 10.06 9.988 10.06" stroke="#FFF" stroke-width=".958"/><ellipse stroke="#FFF" stroke-width=".958" stroke-linecap="square" cx="131.913" cy="182.549" rx="38.524" ry="38.799"/><ellipse fill="#FFF" cx="131.913" cy="182.549" rx="2.854" ry="2.874"/><path d="M2.073 182.55h260.46" stroke="#FFF" stroke-width=".958" stroke-linecap="square"/><g stroke="#FFF" stroke-width=".958"><path d="M64.19 1.008v49.448c0 .832.59 1.506 1.32 1.506h133.495c.73 0 1.32-.672 1.32-1.506V1.008"/><path d="M99.483 1.008v24.28c0 1.14.6 2.065 1.34 2.065h64.45c.742 0 1.342-.93 1.342-2.066V1.007m5.683 51.43c-10.883 8.72-24.662 13.93-39.65 13.93-14.79 0-28.4-5.072-39.215-13.585"/></g><g stroke="#FFF" stroke-width=".958"><path d="M64.19 364.04v-49.45c0-.83.59-1.505 1.32-1.505h133.495c.73 0 1.32.673 1.32 1.506v49.45"/><path d="M99.483 364.04v-24.28c0-1.14.6-2.066 1.34-2.066h64.45c.742 0 1.342.93 1.342 2.066v24.28m5.683-50.422c-10.883-8.72-24.662-13.93-39.65-13.93-14.79 0-28.4 5.073-39.215 13.586"/></g></g><path d="M5.4 352.088h288.798v42.195H5.398zm-.503-69.458H294.7v33.235H4.898zm0-66.474H294.7v33.236H4.898zm0-66.472H294.7v33.236H4.898zm0-66.474H294.7v33.237H4.898zm.706-78.417h288.393v42.195H5.603z" fill="#000" fill-opacity=".05"/></g></svg>